<svg width="200" height="200" viewBox="0 0 200 200" fill="none" xmlns="http://www.w3.org/2000/svg">
<circle cx="100" cy="100" r="100" fill="#3C234F"/>
<path d="M61.3333 139C39.0667 139 33.1667 161.556 33 172.833C54.5 193 86.7222 200.889 102 198.833V139H61.3333Z" fill="white"/>
<path d="M140.5 139C162.767 139 167.5 160.556 167.667 171.833C146.167 192 115.111 200.889 99.8333 198.833V139H140.5Z" fill="white"/>
<circle cx="102" cy="94.5" r="40.8333" fill="white"/>
<path d="M8.79839 124.695C-2.34224 124.695 8.88178 135.802 8.79839 141.444C13.1905 149.86 25.8513 170.525 33.4951 169.497L29.0869 124.613C20.4424 124.613 19.939 124.695 8.79839 124.695Z" fill="white" fill-opacity="0.5"/>
<path d="M48.4078 124.695C59.5484 124.695 61.9166 135.479 62 141.122C51.243 151.212 41.1392 170.659 33.4953 169.631L29.087 124.613C37.7316 124.613 37.2671 124.695 48.4078 124.695Z" fill="white" fill-opacity="0.5"/>
<circle cx="29.1451" cy="102.43" r="20.43" fill="white" fill-opacity="0.5"/>
<path d="M191.067 124.695C202.208 124.695 190.984 135.802 191.067 141.444C186.675 149.86 174.014 170.525 166.37 169.497L170.779 124.613C179.423 124.613 179.926 124.695 191.067 124.695Z" fill="white" fill-opacity="0.5"/>
<path d="M151.458 124.695C140.317 124.695 137.949 135.479 137.865 141.122C148.623 151.212 158.726 170.659 166.37 169.631L170.778 124.613C162.134 124.613 162.598 124.695 151.458 124.695Z" fill="white" fill-opacity="0.5"/>
<circle cx="20.43" cy="20.43" r="20.43" transform="matrix(-1 0 0 1 191.15 82)" fill="white" fill-opacity="0.5"/>
<circle cx="100" cy="100" r="97.5" stroke="#D9D9D9" stroke-width="5"/>
</svg>
