<?xml version="1.0" encoding="UTF-8" standalone="no"?>
<!-- Generator: Adobe Illustrator 27.5.0, SVG Export Plug-In . SVG Version: 6.00 Build 0)  -->

<svg
   version="1.1"
   x="0px"
   y="0px"
   viewBox="0 0 650 500"
   style="enable-background:new 0 0 650 500;"
   xml:space="preserve"
   id="svg98"
   sodipodi:docname="welcome.svg"
   inkscape:version="1.3.2 (091e20e, 2023-11-25)"
   xmlns:inkscape="http://www.inkscape.org/namespaces/inkscape"
   xmlns:sodipodi="http://sodipodi.sourceforge.net/DTD/sodipodi-0.dtd"
   xmlns="http://www.w3.org/2000/svg"
   xmlns:svg="http://www.w3.org/2000/svg"><defs
   id="defs98" /><sodipodi:namedview
   id="namedview98"
   pagecolor="#505050"
   bordercolor="#eeeeee"
   borderopacity="1"
   inkscape:showpageshadow="0"
   inkscape:pageopacity="0"
   inkscape:pagecheckerboard="0"
   inkscape:deskcolor="#505050"
   inkscape:zoom="0.472"
   inkscape:cx="325.21186"
   inkscape:cy="250"
   inkscape:window-width="1712"
   inkscape:window-height="1069"
   inkscape:window-x="0"
   inkscape:window-y="38"
   inkscape:window-maximized="0"
   inkscape:current-layer="svg98" />
<g
   id="BACKGROUND">
	
</g>
<g
   id="OBJECTS">
	<path
   style="fill:#EDDAC5;"
   d="M575.799,271.873c-3.818,59.066-49.124,115.462-110.485,118.96   c-70.477,5.399-135.167-33.25-205.37-33.659c-35.798-3.069-69.37,10.638-104.256,15.064   c-78.793,2.892-90.797-89.701-76.103-149.383C141.558-58.514,580.09-20.232,575.799,271.873z"
   id="path1" />
	<g
   id="g32">
		<g
   id="g4">
			<polygon
   style="fill:#6BB2AB;"
   points="574.287,500 520.348,500 500.51,405.414 486.754,500 430.246,500 438.021,429.584      442.916,385.283 445.867,358.571 522.532,338.814 557.142,340.722    "
   id="polygon1" />
			<path
   style="fill:#389688;"
   d="M497.159,398.377c-9.15-5.369-18.299-10.738-27.449-16.106c-2.582-1.515-5.165-3.03-7.747-4.546     c-0.495-0.291-0.859,0.524-0.369,0.812c9.15,5.369,18.299,10.737,27.449,16.106c2.582,1.515,5.165,3.03,7.747,4.546     C497.285,399.48,497.649,398.665,497.159,398.377z"
   id="path2" />
			<path
   style="fill:#389688;"
   d="M495.504,400.411c-6.55-1.669-13.1-3.337-19.65-5.006c-0.556-0.142-0.692,0.74-0.139,0.881     c6.55,1.669,13.1,3.337,19.65,5.006C495.921,401.433,496.056,400.552,495.504,400.411z"
   id="path3" />
			<path
   style="fill:#389688;"
   d="M560.949,434.67c-2.222-19.352-4.443-38.704-6.665-58.055     c-1.258-10.959-2.516-21.919-3.775-32.878c-0.065-0.569-0.952-0.472-0.886,0.1l6.699,58.352     c2.222,19.352,4.443,38.704,6.665,58.055c1.258,10.959,2.516,21.919,3.775,32.878c0.065,0.569,0.952,0.472,0.886-0.1     L560.949,434.67z"
   id="path4" />
		</g>
		<g
   id="g21">
			<path
   style="fill:#E88846;"
   d="M630.322,152.601c-0.836,7.694-2.93,15.201-5.008,22.659c-1.917,6.857-3.826,13.715-5.734,20.573     l-21.578-0.532c-2.263-1.393-4.155-3.446-5.599-5.701c-2.052-3.192-3.344-6.798-4.653-10.354     c-1.309-3.555-2.686-7.145-4.89-10.227c-0.836-1.174-1.807-2.314-2.187-3.699c-0.388-1.393,0.059-3.15,1.385-3.707     c1.436-0.6,2.998,0.439,4.172,1.469c4.231,3.707,7.896,8.082,10.81,12.904l0.059-0.034c0.405-12.364,0.811-24.728,1.216-37.091     c0.025-0.693,0.051-1.41,0.329-2.052c0.27-0.65,0.853-1.208,1.546-1.25c1.292-0.076,1.993,1.461,2.305,2.719     c1.976,7.964,3.032,16.164,3.159,24.373c0.591-8.623,1.461-17.237,2.593-25.809c0.245-1.799,0.541-3.716,1.765-5.059     c0.465-0.515,1.115-0.937,1.807-0.87c1.292,0.127,1.79,1.731,1.959,3.023c1.225,9.484,1.377,19.103,0.448,28.621l0.042,0.008     c1.554-8.116,3.116-16.24,4.67-24.356c0.169-0.861,0.397-1.816,1.132-2.28c1.191-0.752,2.745,0.329,3.42,1.562     c1.174,2.179,1.03,4.805,0.769,7.271c-0.743,7.026-2.23,13.96-3.708,20.877c1.799-4.957,3.674-9.898,5.608-14.796     c0.388-0.997,0.971-2.137,2.035-2.263c0.87-0.11,1.672,0.591,1.985,1.419C630.483,150.819,630.415,151.723,630.322,152.601z"
   id="path5" />
			<path
   style="fill:#E88846;"
   d="M442.916,385.283l-4.895,44.302c-4.36-1.302-8.737-7.373-10.066-10.886     c-2.764-6.491-2.042-13.668-2.077-20.577c0.339-4.806-1.418-10.565,0.999-14.871c3.664-2.657,8.746-0.134,12.678,0.785     C440.749,384.284,441.899,384.703,442.916,385.283z"
   id="path6" />
			<path
   style="fill:#AF3737;"
   d="M618.946,194.675l-22.779-0.562l-1.266-0.036l-5.118,20.408c0,0-12.393-28.004-22.637-40.397     c-10.244-12.393-44.614-12.063-44.614-12.063l-46.219,9.451c0,0-31.811,18.732-41.11,25.213     c-9.29,6.473-14.122,7.837-16.111,43.651c-1.979,35.814,1.489,146.484,1.489,146.484s7.505,6.65,22.002,1.444l2.907-26.321     c0,0,43.42,19.438,73.198-17.873c0,0,29.163-0.375,38.453-3.352l-1.979-52.789l1.979-38.667c0,0,19.588,41.27,42.884,40.397     c23.296-0.865,21.068-54.403,21.558-94.925L618.946,194.675z M451.314,315.197l0.829-47.422l4.128,23.297L451.314,315.197z"
   id="path7" />
			<path
   style="fill:#F4E9DC;"
   d="M522.532,162.026c0,0-0.553,4.823-1.765,10.592h-0.009c-1.4,6.615-3.673,14.479-6.981,17.742     l-3.967-1.73l-7.355,14.782l-14.292-9.914l-3.718,3.227c0,0-10.618-5.456-15.451-20.818c0,0,1.003-5.97,8.782-6.231l0.121,4.278     l19.52,8.969l16.32-16.942l-1.48-4.585c0,0,0,0,0.009,0C512.488,161.291,517.156,159.655,522.532,162.026z"
   id="path8" />
			<path
   style="fill:#C4532C;"
   d="M621.391,163.661c-5.486-1.772-11.191-2.705-16.956-2.776c-0.572-0.007-0.469,0.879,0.099,0.886     c5.591,0.069,11.167,0.984,16.488,2.702C621.563,164.648,621.936,163.837,621.391,163.661z"
   id="path9" />
			<path
   style="fill:#C4532C;"
   d="M615.359,169.969c-3.719,2.06-7.111,4.651-10.095,7.678c-0.404,0.409,0.29,0.97,0.69,0.565     c2.929-2.971,6.281-5.5,9.929-7.521C616.384,170.412,615.855,169.694,615.359,169.969z"
   id="path10" />
			<path
   style="fill:#8E2323;"
   d="M449.863,228.862l-0.638-11.456c-0.032-0.573-0.918-0.473-0.886,0.1     c0.754,13.532,1.507,27.064,2.261,40.596c0.213,3.819,0.425,7.637,0.638,11.456c0.032,0.573,0.918,0.473,0.886-0.1     C451.371,255.926,450.617,242.394,449.863,228.862z"
   id="path11" />
			<path
   style="fill:#8E2323;"
   d="M557.409,247.717c-2.272-6.927-4.776-13.777-7.514-20.533c-0.786-1.94-1.592-3.872-2.415-5.796     c-0.225-0.526-1.057-0.206-0.831,0.324c2.868,6.702,5.51,13.5,7.915,20.382c0.691,1.976,1.361,3.959,2.013,5.947     C556.757,248.586,557.587,248.261,557.409,247.717z"
   id="path12" />
			<path
   style="fill:#8E2323;"
   d="M553.97,247.384c-4.111-5.083-8.223-10.166-12.334-15.249c-0.36-0.445-1.083,0.077-0.721,0.524     c4.111,5.083,8.222,10.166,12.334,15.249C553.609,248.353,554.332,247.831,553.97,247.384z"
   id="path13" />
			<path
   style="fill:#8E2323;"
   d="M588.841,215.565c-2.192,8.069-4.384,16.137-6.577,24.206c-0.621,2.285-1.242,4.57-1.862,6.855     c-0.15,0.553,0.732,0.688,0.881,0.139c2.192-8.068,4.385-16.137,6.577-24.205c0.621-2.285,1.242-4.57,1.862-6.855     C589.871,215.151,588.99,215.016,588.841,215.565z"
   id="path14" />
			<path
   style="fill:#8E2323;"
   d="M538.416,324.119c-6.074,6.371-12.149,12.743-18.223,19.114c-0.397,0.416,0.296,0.978,0.69,0.565     c6.074-6.371,12.149-12.743,18.223-19.114C539.503,324.268,538.81,323.706,538.416,324.119z"
   id="path15" />
			<path
   style="fill:#8E2323;"
   d="M527.481,328.201c-6.779,7.848-13.689,15.703-21.933,22.062     c-7.822,6.034-16.904,10.722-26.805,11.963c-5.753,0.721-11.665,0.276-17.151-1.656c-0.538-0.19-0.91,0.621-0.368,0.812     c9.802,3.453,20.639,2.304,30.109-1.653c9.379-3.919,17.442-10.356,24.577-17.495c4.294-4.296,8.293-8.873,12.262-13.468     C528.547,328.331,527.856,327.768,527.481,328.201z"
   id="path16" />
			<path
   style="fill:#8E2323;"
   d="M450.424,316.369c-1.823,6.098-3.276,12.305-4.335,18.582c-0.524,3.103-0.953,6.221-1.286,9.35     c-0.313,2.942-0.612,5.914-0.649,8.874c-0.036,2.904,0.355,5.922,2.135,8.313c0.343,0.461,1.065-0.063,0.721-0.524     c-1.576-2.117-1.957-4.767-1.972-7.344c-0.018-2.916,0.3-5.856,0.6-8.754c0.634-6.117,1.635-12.196,2.994-18.193     c0.775-3.418,1.668-6.807,2.672-10.164C451.469,315.961,450.587,315.827,450.424,316.369z"
   id="path17" />
			<path
   style="fill:#8E2323;"
   d="M520.945,244.602c-9.64,6.927-18.466,14.984-26.235,23.961c-2.197,2.539-4.307,5.152-6.332,7.831     c-0.346,0.458,0.344,1.023,0.69,0.565c7.131-9.439,15.361-18.037,24.495-25.556c2.567-2.113,5.205-4.14,7.905-6.08     C521.936,244.988,521.412,244.267,520.945,244.602z"
   id="path18" />
			<path
   style="fill:#8E2323;"
   d="M516.769,263.491c-5.235,3.591-10.47,7.183-15.705,10.774c-0.474,0.325,0.051,1.046,0.524,0.721     c5.235-3.591,10.47-7.183,15.704-10.774C517.767,263.887,517.242,263.167,516.769,263.491z"
   id="path19" />
			<path
   style="fill:#E2CAB0;"
   d="M496.796,184.517c-2.997,2.628-5.817,5.452-8.434,8.459c-0.378,0.434,0.314,0.997,0.69,0.565     c2.567-2.95,5.327-5.725,8.268-8.303C497.748,184.863,497.228,184.138,496.796,184.517z"
   id="path20" />
			<path
   style="fill:#E2CAB0;"
   d="M509.817,187.965c-3.217-1.738-6.56-3.228-10.002-4.46c-0.537-0.192-0.909,0.619-0.368,0.812     c3.443,1.232,6.785,2.723,10.002,4.46C509.955,189.051,510.32,188.237,509.817,187.965z"
   id="path21" />
		</g>
		<g
   id="g31">
			<path
   style="fill:#36344C;"
   d="M509.047,116.945c-2.173,4.425-5.941,7.843-10.559,9.587c-4.101,1.551-8.693,1.735-12.838,0.289     c-3.137,1.157-6.458,1.796-9.797,1.866c-2.9,0.053-5.818-0.28-8.605-1.087c-2.568-0.745-5.056-1.954-6.87-3.97     c-3.698-4.083-3.619-9.832-2.699-14.976c-2.515-3.076-4.425-6.94-3.584-10.997c0.35-1.682,1.165-3.207,2.418-4.381     c1.244-1.165,2.795-1.928,4.346-2.603c1.691-0.736,3.4-1.402,4.969-2.375c1.744-1.095,3.339-2.401,5.065-3.514     c3.023-1.928,6.712-3.225,10.13-1.534c2.629,1.297,4.574,3.952,4.828,6.888c2.751-1.35,5.757-2.305,8.842-2.357     c2.927-0.053,5.731,0.762,8.176,2.375C511.36,95.792,513.376,108.138,509.047,116.945z"
   id="path22" />
			<path
   style="fill:#E88846;"
   d="M510.428,130.756l0.753,4.197c0.491,2.76,0.429,5.503-0.096,8.097     c-0.517,2.55-1.49,4.977-2.83,7.159v0.009c-3.163,5.117-8.377,8.912-14.713,10.042c-6.336,1.139-12.549-0.631-17.28-4.338     c-2.182-1.709-4.04-3.821-5.459-6.265c-1.227-2.129-2.112-4.487-2.568-7.037l-0.753-4.197     c-11.97,2.138-15.256-12.82-10.77-17.061c0.114-0.114,0.245-0.219,0.359-0.316c3.128-2.585,6.047-0.394,7.089,0.587     c-1.753-8.456,1.157-13.179,1.157-13.179c3.996,0.552,7.694,0.552,11.032,0.219c5.31-0.526,9.727-1.91,13.022-3.304     c4.268-1.796,8.204-4.464,8.204-4.464s7.491,6.212,9.927,13.455c0.009,0.009,0.009,0.018,0.009,0.026     c0,0,1.314-3.628,4.522-3.856c0.754-0.061,1.612,0.07,2.603,0.491C520.313,113.44,522.416,128.626,510.428,130.756z"
   id="path23" />
			<path
   style="fill:#E88846;"
   d="M514.214,165.588l-16.79,17.429l-20.68-8.43l-0.123-5.056l-0.359-13.618     c4.732,3.715,10.945,5.486,17.28,4.346c6.327-1.13,11.541-4.925,14.713-10.042l4.513,11.628c-0.009,0-0.009,0-0.009,0     L514.214,165.588z"
   id="path24" />
			<path
   style="fill:#E88846;"
   d="M512.768,161.846l1.446,3.742l-1.455-3.742C512.759,161.846,512.759,161.846,512.768,161.846z"
   id="path25" />
			<path
   style="fill:#C4532C;"
   d="M508.253,150.221c0,0-4.918,23.027-31.631,19.31l-0.356-13.613     c4.727,3.713,10.942,5.478,17.281,4.34C499.876,159.13,505.087,155.333,508.253,150.221z"
   id="path26" />
			<path
   style="fill:#C4532C;"
   d="M492.834,136.182c-2.533,0.855-5.083,1.659-7.645,2.421c-0.097-5.914-0.277-11.826-0.549-17.734     c-0.029-0.623-0.99-0.504-0.962,0.115c0.281,6.104,0.468,12.213,0.562,18.323c0.005,0.345,0.395,0.47,0.664,0.391     c2.782-0.818,5.548-1.691,8.296-2.619C493.791,136.879,493.424,135.983,492.834,136.182z"
   id="path27" />
			<path
   style="fill:#36344C;"
   d="M499.187,136.715c0.413,3.801-1.412,7.658-4.588,9.776c-0.519,0.346,0.067,1.117,0.585,0.772     c3.454-2.303,5.413-6.542,4.965-10.663C500.082,135.98,499.12,136.095,499.187,136.715z"
   id="path28" />
			<circle
   style="fill:#C4532C;"
   cx="475.078"
   cy="137.619"
   r="3.803"
   id="circle28" />
			<circle
   style="fill:#C4532C;"
   cx="504.486"
   cy="129.274"
   r="3.803"
   id="circle29" />
			
				<ellipse
   transform="matrix(0.962 -0.273 0.273 0.962 -16.6015 134.6008)"
   style="fill:#36344C;"
   cx="475.407"
   cy="126.96"
   rx="2.726"
   ry="3.365"
   id="ellipse29" />
			
				<ellipse
   transform="matrix(0.962 -0.273 0.273 0.962 -14.4929 139.8951)"
   style="fill:#36344C;"
   cx="495.487"
   cy="122.03"
   rx="2.726"
   ry="3.365"
   id="ellipse30" />
			<path
   style="fill:#36344C;"
   d="M476.085,118.679c-0.314-0.379-0.752-0.693-1.255-0.746c-0.173-0.002-0.346-0.005-0.52-0.007     c-0.347,0.043-0.66,0.169-0.939,0.379l-3.836,2.27c-0.39,0.231-0.682,0.828-0.746,1.255c-0.072,0.476,0.059,1.082,0.372,1.459     c0.314,0.379,0.752,0.693,1.255,0.746c0.173,0.002,0.346,0.005,0.519,0.007c0.347-0.043,0.66-0.169,0.939-0.379l3.836-2.27     c0.39-0.231,0.682-0.828,0.746-1.255C476.528,119.662,476.397,119.056,476.085,118.679z"
   id="path30" />
			<path
   style="fill:#36344C;"
   d="M489.848,114.774c0.068-0.487,0.276-0.985,0.676-1.294c0.146-0.093,0.292-0.186,0.438-0.279     c0.318-0.146,0.651-0.203,0.998-0.171l4.456-0.083c0.453-0.008,1.015,0.346,1.294,0.677c0.311,0.367,0.518,0.952,0.45,1.436     c-0.068,0.487-0.276,0.985-0.677,1.294c-0.146,0.093-0.292,0.186-0.438,0.279c-0.318,0.146-0.65,0.203-0.998,0.171l-4.456,0.083     c-0.453,0.008-1.015-0.346-1.294-0.676C489.987,115.843,489.78,115.259,489.848,114.774z"
   id="path31" />
		</g>
	</g>
	<g
   id="g60">
		<g
   id="g33">
			<polygon
   style="fill:#AF3737;"
   points="134.274,383.736 120.658,500 184.55,500 197.652,414.439 212.482,500 278.469,500      259.266,383.736    "
   id="polygon32" />
			<path
   style="fill:#8E2323;"
   d="M193.554,414.189c-5.559-1.597-11.117-3.194-16.676-4.791c-0.529-0.152-0.658,0.696-0.134,0.847     c5.559,1.597,11.117,3.194,16.676,4.791C193.949,415.188,194.079,414.34,193.554,414.189z"
   id="path32" />
			<path
   style="fill:#8E2323;"
   d="M190.56,417.339l-16.204,0.997c-0.55,0.034-0.455,0.886,0.096,0.852l16.204-0.997     C191.206,418.157,191.111,417.305,190.56,417.339z"
   id="path33" />
		</g>
		<g
   id="g42">
			<path
   style="fill:#F2B34E;"
   d="M163.125,176.773c0,0-8.989,0.063-13.722,7.208c0,0-24.44,5.439-29.483,14.206     c-5.043,8.767-35.69,58.656-35.69,58.656l26.399,51.773c0,0,12.705-3.088,11.308-16.471l8.379-10.474l5.586,34.604l-4.966,78.673     c0,0,17.767,15.983,29.017,17.379c11.25,1.397,38.793-17.535,38.793-17.535s26.923,17.612,36.931,18.621     c10.009,1.009,26.535-19.552,26.535-19.552l-8.767-93.337l1.629-53.302l28.164,13.966c0,0,9.695,15.871,27.018,5.491l-6.535-42.5     c0,0-43.837-31.469-54.078-38.405s-44.224-6.285-44.224-6.285s-5.794-5.586-11.819-4.655L163.125,176.773z"
   id="path34" />
			<path
   style="fill:#EA8C11;"
   d="M178.089,218.121c-3.09-4.515-6.219-9.08-10.244-12.827c-3.548-3.304-7.934-6.098-12.78-6.931     c-2.413-0.415-4.961-0.25-7.127,0.922c-0.506-4.065,0.02-8.204,1.57-12.004c0.208-0.51-0.572-0.866-0.781-0.354     c-1.687,4.138-2.236,8.677-1.565,13.096c0.05,0.327,0.404,0.478,0.678,0.299c4.05-2.648,9.519-0.93,13.403,1.185     c4.384,2.388,7.941,6.018,10.993,9.915c1.822,2.326,3.492,4.765,5.16,7.202C177.708,219.082,178.4,218.577,178.089,218.121z"
   id="path35" />
			<path
   style="fill:#EA8C11;"
   d="M208.888,183.58c-0.215-0.507-1.015-0.198-0.799,0.312c1.613,3.801,2.764,7.774,3.448,11.844     c-9.31,1.039-16.445,8.004-21.62,15.317c-1.62,2.289-3.12,4.659-4.613,7.031c-0.291,0.462,0.37,1.009,0.663,0.543     c4.911-7.799,10.272-16.109,18.933-20.127c2.274-1.055,4.691-1.749,7.19-1.973c0.223-0.02,0.414-0.249,0.378-0.474     C211.784,191.767,210.584,187.576,208.888,183.58z"
   id="path36" />
			<path
   style="fill:#EA8C11;"
   d="M120.808,290.294c-3.722-8.546-9.021-16.37-15.565-23.007c-1.871-1.898-3.845-3.693-5.907-5.382     c-0.428-0.35-0.97,0.314-0.543,0.663c7.125,5.836,13.142,12.979,17.696,20.985c1.3,2.285,2.47,4.642,3.52,7.052     C120.229,291.11,121.03,290.802,120.808,290.294z"
   id="path37" />
			<path
   style="fill:#EA8C11;"
   d="M282.983,223.928c0.115-0.54-0.732-0.673-0.847-0.134c-1.895,8.903-2.476,18.08-1.712,27.151     c0.219,2.6,0.551,5.189,0.987,7.762c0.092,0.541,0.945,0.45,0.852-0.096c-1.523-8.97-1.722-18.148-0.563-27.173     C282.024,228.918,282.454,226.413,282.983,223.928z"
   id="path38" />
			<path
   style="fill:#EA8C11;"
   d="M192.857,328.013c-1.598-21.809-3.196-43.618-4.793-65.427c-0.897-12.24-1.793-24.479-2.69-36.719     c-0.04-0.55-0.893-0.455-0.852,0.096c1.598,21.809,3.196,43.618,4.793,65.427c1.598,21.809,3.196,43.618,4.793,65.427     l2.69,36.719c0.04,0.55,0.893,0.455,0.852-0.096C196.053,371.631,194.455,349.822,192.857,328.013z"
   id="path39" />
			<path
   style="fill:#EA8C11;"
   d="M126.768,246.382c-0.44-3.033-0.881-6.066-1.321-9.099c-0.079-0.544-0.932-0.452-0.852,0.096     c1.557,10.721,3.113,21.442,4.67,32.162c0.44,3.033,0.881,6.066,1.321,9.099c0.079,0.544,0.932,0.452,0.852-0.096     C129.882,267.824,128.325,257.103,126.768,246.382z"
   id="path40" />
			<path
   style="fill:#EA8C11;"
   d="M127.896,276.817c-1.75-6.614-3.5-13.229-5.25-19.843c-0.141-0.532-0.939-0.217-0.799,0.312     c1.75,6.614,3.5,13.229,5.25,19.843C127.237,277.661,128.035,277.346,127.896,276.817z"
   id="path41" />
			<path
   style="fill:#EA8C11;"
   d="M256.151,215.137c-0.417,7.726-0.833,15.452-1.25,23.177c-0.118,2.197-0.237,4.394-0.355,6.592     c-0.029,0.546,0.817,0.685,0.847,0.134c0.417-7.726,0.833-15.452,1.25-23.177c0.118-2.197,0.237-4.394,0.355-6.592     C257.028,214.726,256.181,214.586,256.151,215.137z"
   id="path42" />
		</g>
		<g
   id="g51">
			<path
   style="fill:#D36D29;"
   d="M198.852,185.676l-17.914,35.955l-22.05-33.454l0.694-7.866l1.234-13.972     c4.401,4.354,10.553,6.891,17.174,6.471c6.61-0.412,12.389-3.685,16.228-8.545L198.852,185.676z"
   id="path43" />
			<path
   style="fill:#AA3617;"
   d="M194.219,164.266c0,0-7.366,18.789-34.266,11.848l0.863-9.775     c4.401,4.354,10.553,6.891,17.174,6.471C184.6,172.399,190.379,169.125,194.219,164.266z"
   id="path44" />
			<path
   style="fill:#D36D29;"
   d="M197.43,147.71l0.257,4.083c0.159,2.674-0.186,5.278-0.974,7.696c-0.77,2.365-1.957,4.57-3.48,6.5     v0.009c-3.569,4.517-8.944,7.563-15.09,7.944c-6.155,0.39-11.876-1.966-15.967-6.013c-1.895-1.86-3.436-4.083-4.508-6.553     c-0.939-2.161-1.523-4.508-1.683-6.978l-0.248-4.083c-11.247,0.708-13.018-12.93-8.829-17.021     c0.142-0.142,0.292-0.266,0.443-0.381c0.124-0.097,0.257-0.186,0.372-0.266c3.259-2.117,5.792,0.283,6.677,1.328     c1.346-1.196,2.311-2.816,2.719-4.57c0.407-1.683,0.292-3.48-0.319-5.101c1.523-0.177,2.993-0.85,4.109-1.922     c1.47-1.408,2.294-3.471,2.179-5.508c1.258,0.646,2.692,0.921,4.1,0.815c0.753-0.044,1.497-0.213,2.205-0.478     c2.019-0.779,3.684-2.444,4.446-4.472c1.931,1.559,4.428,2.409,6.916,2.365c2.48-0.044,4.942-0.992,6.819-2.621     c0.168,1.851,0.832,3.631,1.886,5.172c0.257,0.398,0.549,0.779,0.877,1.142c1.328,1.55,3.073,2.754,5.03,3.365     c-1.08,2.674-0.939,5.809,0.337,8.387c0,0.009,0.009,0.009,0.018,0.018c0.221,0.248,0.452,0.487,0.691,0.726l0.027,0.505v0.027     c0,0,0,0,0.009-0.009c0.097-0.195,1.736-3.303,4.72-3.17c0.717,0.027,1.523,0.248,2.418,0.753     c0.31,0.177,0.611,0.399,0.886,0.664C208.73,134.063,208.358,147.037,197.43,147.71z"
   id="path45" />
			<path
   style="fill:#AA3617;"
   d="M180.096,150.956c-2.503,0.537-5.017,1.023-7.539,1.469c0.554-5.637,1.028-11.282,1.414-16.933     c0.041-0.596-0.887-0.588-0.928,0.005c-0.399,5.839-0.888,11.671-1.466,17.495c-0.033,0.328,0.325,0.49,0.589,0.444     c2.737-0.475,5.464-1.004,8.179-1.586C180.931,151.724,180.679,150.831,180.096,150.956z"
   id="path46" />
			<circle
   style="fill:#AA3617;"
   cx="163.045"
   cy="150.384"
   r="3.642"
   id="circle46" />
			<circle
   style="fill:#AA3617;"
   cx="191.937"
   cy="145.655"
   r="3.642"
   id="circle47" />
			
				<ellipse
   transform="matrix(0.9869 -0.1615 0.1615 0.9869 -20.4984 28.4169)"
   style="fill:#36344C;"
   cx="164.522"
   cy="140.279"
   rx="2.611"
   ry="3.223"
   id="ellipse47" />
			
				<ellipse
   transform="matrix(0.9869 -0.1615 0.1615 0.9869 -19.8368 31.5571)"
   style="fill:#36344C;"
   cx="184.166"
   cy="137.78"
   rx="2.611"
   ry="3.223"
   id="ellipse48" />
			<path
   style="fill:#36344C;"
   d="M166.071,132.473c-0.257-0.395-0.639-0.741-1.113-0.847c-0.164-0.021-0.329-0.042-0.493-0.064     c-0.335,0.003-0.646,0.089-0.935,0.258l-3.898,1.741c-0.396,0.177-0.739,0.713-0.847,1.113c-0.12,0.445-0.062,1.036,0.194,1.428     c0.257,0.395,0.639,0.741,1.113,0.847c0.164,0.021,0.329,0.042,0.493,0.064c0.335-0.003,0.646-0.089,0.935-0.258l3.898-1.741     c0.397-0.177,0.739-0.713,0.847-1.113C166.385,133.457,166.327,132.866,166.071,132.473z"
   id="path48" />
			<path
   style="fill:#36344C;"
   d="M179.592,130.26c0.118-0.456,0.37-0.907,0.785-1.157c0.149-0.073,0.298-0.145,0.447-0.218     c0.318-0.104,0.641-0.122,0.968-0.053l4.249,0.407c0.432,0.041,0.928,0.44,1.157,0.785c0.256,0.383,0.389,0.962,0.271,1.416     c-0.118,0.456-0.37,0.907-0.785,1.157c-0.149,0.073-0.298,0.145-0.447,0.218c-0.318,0.104-0.641,0.122-0.968,0.053l-4.249-0.407     c-0.432-0.041-0.928-0.44-1.157-0.785C179.608,131.293,179.475,130.714,179.592,130.26z"
   id="path49" />
			<path
   style="fill:#36344C;"
   d="M207.658,124.747c-0.469,2.028-1.815,3.728-3.188,5.314c-0.275-0.266-0.576-0.487-0.886-0.664     c-0.894-0.505-1.7-0.726-2.418-0.753c-2.984-0.133-4.623,2.976-4.72,3.17c0-0.009-0.009-0.009-0.009-0.018l-0.027-0.505     c-0.239-0.239-0.469-0.478-0.691-0.726c-0.009-0.009-0.018-0.009-0.018-0.018c-0.956-1.931-1.275-4.18-0.921-6.305     c-1.762,0.239-3.595-0.053-5.172-0.965c-1.656-0.948-2.922-2.471-3.613-4.233c-0.983,0.549-2.055,0.939-3.179,1.107     c-2.595,0.381-5.243-0.398-7.288-1.984c-0.664,0.602-1.408,1.125-2.223,1.541c-2.347,1.187-5.128,1.355-7.634,0.593     c-0.461,1.275-1.187,2.444-2.161,3.401c-1.674,1.647-3.914,2.577-6.235,2.701c0.115,1.001,0.08,2.019-0.159,3.002     c-0.407,1.753-1.373,3.374-2.719,4.57c-0.886-1.045-3.418-3.445-6.677-1.328c-0.115,0.08-0.248,0.168-0.372,0.266     c-0.151,0.115-0.301,0.239-0.443,0.381c-0.974-0.832-1.612-2.081-1.665-3.374c-0.062-1.709,0.912-3.427,2.418-4.251     c-1.452-1.399-2.063-3.613-1.532-5.553c0.522-1.948,2.17-3.542,4.136-4.012c-1.576-2.001-1.621-5.066-0.106-7.111     c1.514-2.055,4.454-2.905,6.828-1.993c-0.735-2.586,0.522-5.597,2.869-6.899c2.356-1.302,5.57-0.762,7.377,1.231     c0.363-2.754,2.604-5.154,5.331-5.703c2.719-0.549,5.721,0.788,7.129,3.188c1.054-2.223,3.569-3.657,6.013-3.445     c2.453,0.221,4.676,2.072,5.331,4.446c1.904-1.576,4.959-1.027,6.722,0.708c1.771,1.727,2.444,4.295,2.577,6.766     c1.727-0.788,3.897-0.151,5.172,1.258c1.275,1.399,1.736,3.418,1.523,5.305c-0.204,1.886-1.01,3.657-1.993,5.278     C207.207,119.805,208.154,122.533,207.658,124.747z"
   id="path50" />
			<path
   style="fill:#F4E9DC;"
   d="M188.048,159.608c-1.617,2.184-4.331,3.253-6.999,2.823c-2.302-0.365-5.656-2.375-4.778-5.18     c0.393-1.261,1.654-2.111,2.869-2.476c1.16-0.356,2.375-0.32,3.518,0.046c0.356-1.06,0.859-2.056,1.8-2.732     c1.16-0.841,2.686-0.886,3.783,0.091C190.368,154.08,189.537,157.598,188.048,159.608z"
   id="path51" />
		</g>
		<g
   id="g55">
			<path
   style="fill:#D36D29;"
   d="M51.411,232.791c0,0,18.737,92.406,39.569,87.751s22.811-14.953,19.319-23.537     c-3.491-8.584-37.94-73.524-37.94-73.524s0-12.86-3.491-23.509c-3.491-10.649-2.095-24.556-3.608-26.244     c-1.513-1.688-7.914-3.986-6.983,19.494c0,0-26.389-30.375-30.433-26.127s14.897,25.487,14.897,25.487     s-25.4-20.483-27.815-16.933c-2.415,3.55,19.377,22.403,19.377,22.403s-18.126-14.926-20.774-12.104s18.621,19.959,18.621,19.959     s-21.705-2.764-21.763,1.047c-0.058,3.811,20.483,6.343,20.483,6.343S39.851,228.369,51.411,232.791z"
   id="path52" />
			<path
   style="fill:#AA3617;"
   d="M49.172,192.043c-1.478,0.872-2.905,1.822-4.308,2.806c-0.012-0.054-0.035-0.104-0.073-0.147     l-2.44-2.797c-0.149-0.17-0.39-0.234-0.585-0.093c-0.171,0.124-0.242,0.414-0.093,0.585l2.44,2.797     c0.036,0.041,0.077,0.075,0.122,0.102c-2.43,1.746-4.755,3.635-6.933,5.689c-1.357-1.463-2.713-2.925-4.07-4.388     c-0.154-0.166-0.386-0.237-0.585-0.093c-0.166,0.121-0.247,0.418-0.093,0.585l4.089,4.408c0.019,0.021,0.042,0.035,0.064,0.052     c-0.682,0.659-1.356,1.328-2.01,2.016c-0.372,0.391,0.279,0.919,0.648,0.531c4.219-4.437,9.047-8.265,14.319-11.376     C50.128,192.446,49.633,191.771,49.172,192.043z"
   id="path53" />
			<path
   style="fill:#AA3617;"
   d="M54.282,203.171c-1.367,4.097-2.104,8.356-2.2,12.673c-0.012,0.536,0.82,0.439,0.832-0.094     c0.093-4.155,0.815-8.291,2.13-12.234C55.214,203.011,54.452,202.661,54.282,203.171z"
   id="path54" />
			<path
   style="fill:#AA3617;"
   d="M67.778,227.258c-3.329,1.095-6.588,2.391-9.76,3.881c-0.485,0.228-0.185,1.01,0.304,0.78     c3.172-1.491,6.43-2.787,9.76-3.881C68.594,227.87,68.29,227.09,67.778,227.258z"
   id="path55" />
		</g>
		<g
   id="g59">
			<path
   style="fill:#D36D29;"
   d="M319.187,170.835c0,0,12.287,93.482-8.928,95.845c-21.215,2.362-26.43-6.735-25.916-15.987     c0.515-9.253,12.007-81.86,12.007-81.86s-4.176-12.163-4.332-23.368c-0.156-11.205-5.993-23.906-5.11-25.993     c0.883-2.087,6.19-6.34,12.935,16.169c0,0,15.095-37.299,20.299-34.594c5.204,2.704-5.812,28.944-5.812,28.944     s17.372-27.621,20.808-25.048s-11.052,27.482-11.052,27.482s12.297-20.003,15.717-18.194s-11.13,24.924-11.13,24.924     s19.631-9.663,20.924-6.077c1.293,3.586-17.313,12.651-17.313,12.651S328.684,162.898,319.187,170.835z"
   id="path56" />
			<path
   style="fill:#AA3617;"
   d="M308.072,131.567c1.681,0.345,3.34,0.78,4.986,1.254c-0.006-0.054-0.001-0.11,0.021-0.163     l1.399-3.438c0.085-0.209,0.293-0.348,0.523-0.277c0.202,0.062,0.363,0.313,0.278,0.523l-1.399,3.438     c-0.02,0.05-0.049,0.096-0.082,0.136c2.865,0.862,5.678,1.894,8.405,3.13c0.808-1.824,1.616-3.648,2.425-5.472     c0.091-0.207,0.289-0.349,0.523-0.277c0.196,0.06,0.37,0.315,0.277,0.523l-2.436,5.497c-0.011,0.026-0.029,0.046-0.043,0.07     c0.859,0.402,1.713,0.816,2.556,1.254c0.479,0.249,0.035,0.96-0.441,0.712c-5.431-2.826-11.24-4.879-17.237-6.109     C307.298,132.26,307.548,131.46,308.072,131.567z"
   id="path57" />
			<path
   style="fill:#AA3617;"
   d="M306.853,143.752c2.623,3.431,4.703,7.22,6.197,11.272c0.185,0.503-0.633,0.682-0.818,0.182     c-1.437-3.9-3.464-7.577-5.988-10.879C305.92,143.903,306.526,143.325,306.853,143.752z"
   id="path58" />
			<path
   style="fill:#AA3617;"
   d="M301.91,170.917c3.504-0.046,7.007,0.122,10.491,0.501c0.533,0.058,0.503,0.895-0.034,0.837     c-3.484-0.38-6.987-0.547-10.491-0.501C301.337,171.761,301.372,170.924,301.91,170.917z"
   id="path59" />
		</g>
	</g>
	<g
   id="g98">
		<path
   style="fill:#AF3737;"
   d="M390.84,155.594c-3.406,3.869-8.853,5.804-13.891,4.458c-5.207-1.382-9.156-5.332-13.891-7.685    c-2.505-1.248-5.224-2.247-7.177-4.333c-0.25-0.259-0.473-0.535-0.678-0.82c-0.223-0.276-0.437-0.58-0.633-0.909    c-2.817-4.948,0.062-11.162,3.129-15.281c3.317-4.449,8.229-7.667,13.775-8.425c5.269-0.713,10.503,1.097,14.613,4.378    c4.208,3.361,7.329,8.202,8.425,13.48C395.601,145.707,394.433,151.52,390.84,155.594z"
   id="path60" />
		<path
   style="fill:#AF3737;"
   d="M398.502,172.779c0,18.65-12.429,29.786-28.232,29.786s-28.996-11.136-28.996-29.786    s12.811-29.68,28.614-29.68S398.502,154.129,398.502,172.779z"
   id="path61" />
		<g
   id="g65">
			<path
   style="fill:#F99958;"
   d="M259.079,114.492c-0.508,4.003-1.73,7.881-2.487,11.849c-1.052,5.483-1.221,11.109-2.202,16.61     c-0.936,5.26-2.737,10.565-6.339,14.488c0.045,1.346,0.08,2.693,0.125,4.039l-20.711-5.126c0.151-2.131,0.303-4.262,0.455-6.393     c-2.933-6.312-4.021-13.338-6.17-19.98c-2.47-7.623-6.357-14.773-8.247-22.557c-0.116-0.499-0.232-1.007-0.143-1.507     c0.08-0.499,0.41-0.99,0.9-1.123c0.776-0.205,1.462,0.526,1.926,1.186c2.826,4.003,5.323,8.256,7.453,12.669     c-1.961-6.883-3.37-13.917-4.235-21.023c-0.187-1.489-0.339-3.005-0.089-4.485c0.098-0.597,0.357-1.284,0.945-1.435     c0.553-0.134,1.079,0.276,1.453,0.704c0.981,1.123,1.542,2.55,2.059,3.95c2.657,7.133,4.797,14.443,6.919,21.754l0.169-0.053     c-1.765-9.112-3.539-18.268-3.869-27.54c-0.018-0.535-0.036-1.088,0.143-1.587c0.187-0.508,0.597-0.954,1.132-1.025     c0.704-0.089,1.302,0.499,1.721,1.07c1.489,2.033,2.3,4.467,3.004,6.883c1.551,5.287,2.719,10.672,3.762,16.084     c-0.374-5.688-0.722-11.367-0.874-17.065c-0.053-1.863-0.071-3.771,0.517-5.537c0.25-0.749,0.829-1.578,1.605-1.462     c0.606,0.089,0.963,0.704,1.212,1.257c3.183,6.954,3.709,14.764,4.913,22.316c0.803,5.046,1.926,10.03,3.37,14.925     c1.373-4.904,3.629-9.558,6.615-13.686c0.455-0.624,0.936-1.248,1.578-1.658c0.642-0.419,1.48-0.597,2.175-0.285     C259.151,111.327,259.258,113.093,259.079,114.492z"
   id="path62" />
			<path
   style="fill:#D36D29;"
   d="M240.468,111.901c-1.025,0.419-2.03,0.883-3.021,1.374c-0.106-0.776-0.212-1.552-0.318-2.328     c-0.031-0.231-0.251-0.431-0.493-0.393c-0.234,0.037-0.427,0.245-0.393,0.493c0.113,0.828,0.226,1.655,0.339,2.483     c0.007,0.053,0.027,0.104,0.052,0.151c-3.525,1.833-6.809,4.117-9.748,6.801c-0.42,0.383,0.1,1.108,0.524,0.721     c3.928-3.587,8.457-6.46,13.382-8.471C241.322,112.515,241.001,111.683,240.468,111.901z"
   id="path63" />
			<path
   style="fill:#D36D29;"
   d="M224.107,118.053c-0.121-0.2-0.445-0.24-0.623-0.099c-0.203,0.161-0.228,0.409-0.099,0.623     c0.024,0.039,0.047,0.079,0.07,0.119c0.007,0.013,0.014,0.027,0.021,0.04c0.04,0.078,0.078,0.157,0.113,0.236     c0.066,0.149,0.123,0.302,0.172,0.458c0.022,0.071,0.043,0.143,0.061,0.215c0.006,0.026,0.015,0.068,0.017,0.079     c0.007,0.034,0.014,0.069,0.02,0.103c0.032,0.172,0.052,0.346,0.063,0.52c0.015,0.233,0.263,0.429,0.493,0.393     c0.248-0.039,0.409-0.243,0.393-0.493C224.76,119.468,224.509,118.72,224.107,118.053z"
   id="path64" />
			<path
   style="fill:#D36D29;"
   d="M242.524,136.303c-2.926-4.044-6.663-7.435-10.957-9.976c-0.494-0.292-0.857,0.523-0.369,0.812     c4.158,2.46,7.773,5.774,10.604,9.688C242.139,137.293,242.861,136.769,242.524,136.303z"
   id="path65" />
		</g>
		<g
   id="g70">
			<path
   style="fill:#F99958;"
   d="M459.61,460.476c-0.009,1.016-0.027,2.033-0.062,3.058c-0.027,0.856-0.054,1.792-0.624,2.487     c-0.446,0.535-1.159,0.856-1.845,0.642c-0.651-0.205-1.052-0.785-1.319-1.373c-0.392-0.865-0.624-1.828-0.9-2.728     c-0.303-0.999-0.588-1.997-0.856-2.996c-0.25-0.909-0.473-1.828-0.695-2.746c-0.116,1.872-0.268,3.745-0.544,5.608     c-0.374,2.559-0.981,5.109-1.979,7.507c-0.365,0.874-0.838,1.953-1.837,2.238c-0.838,0.241-1.587-0.241-1.961-0.981     c-0.464-0.918-0.401-1.953-0.392-2.951c0.027-1.48,0.054-2.969,0.08-4.449c0.018-1.123,0.036-2.256,0.053-3.379     c-0.151,0.642-0.312,1.284-0.49,1.917c-0.535,1.97-1.159,3.923-1.935,5.813c-0.562,1.364-1.979,3.094-3.638,2.166     c-0.651-0.357-0.945-1.052-1.079-1.739c-0.187-0.99-0.169-2.051-0.169-3.058c0-1.328,0.089-2.657,0.232-3.976     c-0.517,0.9-1.07,1.792-1.667,2.648c-0.446,0.624-0.918,1.355-1.667,1.649c-0.615,0.232-1.302,0.027-1.658-0.535     c-0.285-0.464-0.294-1.043-0.241-1.56c0.08-0.82,0.321-1.632,0.49-2.434c0.383-1.819,0.767-3.629,1.15-5.447     c0.392-1.854,0.785-3.7,1.177-5.554c0.383-1.774,0.811-3.557,0.963-5.376c0.134-1.667-0.152-3.272-0.553-4.859     c-0.615-1.025-1.204-2.077-1.721-3.165c-2.398-5.1-3.415-11.1-1.435-16.503c1.257-3.45,3.861-6.437,7.168-7.988     c0.232-0.16,0.464-0.321,0.704-0.455c1.426-0.794,3.067-1.213,4.699-1.016c1.614,0.187,3.076,1.025,4.199,2.175     c2.612,2.675,3.263,6.491,4.003,10.003c0.856,4.128,1.641,8.274,2.3,12.437C458.861,443.795,459.672,452.131,459.61,460.476z"
   id="path66" />
			<path
   style="fill:#D36D29;"
   d="M446.384,440.752c-0.196,4.231-0.356,8.587-1.623,12.661c-0.257,0.826-0.77,2.079-1.844,1.978     c-0.898-0.085-1.172-1.275-1.344-1.989c-0.507-2.107-0.547-4.288-0.774-6.435c-0.225-2.137-0.658-4.249-1.73-6.133     c-0.284-0.499-1.003,0.03-0.721,0.524c1.129,1.983,1.444,4.28,1.643,6.518c0.197,2.213,0.21,4.61,1.004,6.714     c0.27,0.715,0.743,1.418,1.518,1.632c0.877,0.242,1.795-0.217,2.329-0.912c0.63-0.82,0.865-1.91,1.113-2.893     c0.292-1.158,0.511-2.333,0.68-3.515c0.38-2.653,0.505-5.335,0.629-8.01C447.29,440.325,446.41,440.179,446.384,440.752z"
   id="path67" />
			<path
   style="fill:#D36D29;"
   d="M440.398,456.44c-0.265,1.608-0.53,3.216-0.795,4.824c-0.093,0.566,0.787,0.706,0.88,0.139     c0.265-1.608,0.53-3.216,0.796-4.824C441.372,456.013,440.492,455.873,440.398,456.44z"
   id="path68" />
			<path
   style="fill:#D36D29;"
   d="M446.701,452.655c-0.141,2.52-0.282,5.04-0.423,7.56c-0.032,0.567,0.849,0.713,0.881,0.139     c0.141-2.52,0.282-5.04,0.422-7.56C447.614,452.227,446.733,452.081,446.701,452.655z"
   id="path69" />
			<path
   style="fill:#D36D29;"
   d="M452.828,445.672c-0.113-0.557-1.001-0.464-0.886,0.1c0.781,3.835,1.186,7.735,1.21,11.649     c0.003,0.572,0.89,0.47,0.886-0.1C454.015,453.406,453.61,449.507,452.828,445.672z"
   id="path70" />
		</g>
		<path
   style="fill:#36344C;"
   d="M362.534,362.197l-61.211-2.974c0,0-21.315-0.991-23.793,140.777h57.501l17.798-79.311L362.534,500    h52.303c0,0,12.888-125.411-17.845-138.299L362.534,362.197z"
   id="path71" />
		<g
   id="g76">
			<path
   style="fill:#F4E9DC;"
   d="M402.318,366.907c-61.714,18.027-93.685-3.718-93.685-3.718l9.049-51.8l7.685-74.606l64.193,2.978     l7.436,85.011C396.434,324.825,402.318,366.907,402.318,366.907z"
   id="path72" />
			<path
   style="fill:#F2B34E;"
   d="M376.659,288.217c-0.036,3.432-0.384,6.847-0.811,10.244c-0.428,3.397-0.874,6.794-1.417,10.173     c-1.034,6.535-2.461,13.32-5.608,19.195c-1.222,2.273-2.987,4.574-5.635,5.135c-2.915,0.615-5.546-1.302-7.516-3.21     c-2.559-2.487-4.939-5.171-7.4-7.765c-2.229-2.354-4.547-4.654-6.544-7.222c-1.819-2.354-3.334-4.993-3.905-7.944     c-0.606-3.112,0-6.312,1.195-9.219c1.221-2.996,3.022-5.715,4.921-8.318c1.828-2.514,3.798-4.913,5.929-7.177     c0.758-0.802,1.542-1.569,2.345-2.336c1.328-1.409,2.728-2.773,4.199-4.057c2.3-2.006,4.788-4.021,7.48-5.483     c1.328-0.731,2.808-1.239,4.342-1.088c1.275,0.125,2.461,0.74,3.406,1.587c2.131,1.917,3.192,4.752,3.896,7.453     C376.391,281.459,376.685,284.847,376.659,288.217z"
   id="path73" />
			<path
   style="fill:#D36D29;"
   d="M381.848,317.425c1.245,8.735-8.594,12.704-15.46,9.022c-7.298-7.274-10.059-37.37,7.293-30.5     C381.428,299.892,382.326,309.681,381.848,317.425z"
   id="path74" />
			<path
   style="fill:#E2CAB0;"
   d="M344.976,288.94c-6.266,3.348-13.902,3.181-19.984-0.502c-1.615-0.978-3.093-2.198-4.368-3.59     c-0.384-0.419-1.109,0.101-0.721,0.524c4.875,5.322,12.244,7.864,19.358,6.521c2.11-0.398,4.145-1.111,6.039-2.122     C345.8,289.504,345.483,288.669,344.976,288.94z"
   id="path75" />
			<path
   style="fill:#E2CAB0;"
   d="M395.766,291.99c-6.734,3.967-15.144,4.352-22.207,1.011c-1.93-0.913-3.72-2.083-5.342-3.472     c-0.437-0.374-1,0.317-0.565,0.69c6.12,5.243,14.528,7.177,22.322,5.138c2.221-0.581,4.339-1.482,6.316-2.646     C396.785,292.419,396.257,291.7,395.766,291.99z"
   id="path76" />
		</g>
		<g
   id="g84">
			<path
   style="fill:#F99958;"
   d="M389.301,191.697l-0.232,3.914c-0.098,1.498-0.339,2.951-0.749,4.315     c-1.311,4.583-4.199,8.461-8.006,11.055c-3.539,2.425-7.881,3.745-12.464,3.468c-5.305-0.312-10.012-2.693-13.4-6.294     c-3.646-3.896-5.777-9.21-5.438-14.934l0.232-3.896c-11.171-0.669-10.886-14.764-5.956-17.591     c3.807-2.175,6.125,1.079,6.714,2.051c0,0,3.37-0.036,7.98-1.141c4.939-1.177,11.296-3.566,16.476-8.434     c0.847-0.785,1.667-1.649,2.443-2.594c1.159-1.4,2.229-2.969,3.156-4.716c0,0,3.406,2.407,6.268,6.918     c1.052,1.641,2.024,3.557,2.728,5.733c0.678,2.051,1.123,4.342,1.177,6.847h-0.018v0.036c0,0,0-0.009,0.018-0.027v-0.009     c0.285-0.41,3.174-4.333,7.079-1.435c0.553,0.41,1.025,0.981,1.382,1.658c0.223,0.401,0.41,0.847,0.57,1.328     C400.954,183.236,398.297,192.232,389.301,191.697z"
   id="path77" />
			<path
   style="fill:#F99958;"
   d="M406.214,231.665c-0.731,1.783-1.917,3.753-3.441,5.84c-16.868,23.109-50.864,24.678-70.335,3.718     c-4.761-5.135-8.755-9.968-10.788-13.605c8.791-1.801,30.215-5.947,30.215-5.947h0.009l0.392-2.06l1.284-6.767l0.9-4.69     c3.388,3.602,8.095,5.982,13.4,6.294c4.583,0.276,8.925-1.043,12.464-3.468l0.357,5.34l0.455,6.428     C382.623,222.928,406.214,231.576,406.214,231.665z"
   id="path78" />
			<path
   style="fill:#D36D29;"
   d="M371.246,193.379c-2.341-0.024-4.68-0.096-7.019-0.205c1.627-4.916,3.184-9.855,4.665-14.818     c0.156-0.523-0.673-0.703-0.828-0.182c-1.53,5.127-3.138,10.231-4.824,15.309c-0.095,0.286,0.191,0.502,0.436,0.515     c2.536,0.127,5.074,0.203,7.614,0.229C371.836,194.232,371.791,193.385,371.246,193.379z"
   id="path79" />
			<circle
   style="fill:#D36D29;"
   cx="356.154"
   cy="189.442"
   r="3.33"
   id="circle79" />
			<circle
   style="fill:#D36D29;"
   cx="382.872"
   cy="191.031"
   r="3.33"
   id="circle80" />
			
				<ellipse
   transform="matrix(0.0594 -0.9982 0.9982 0.0594 157.7474 528.863)"
   style="fill:#36344C;"
   cx="359.502"
   cy="180.727"
   rx="2.947"
   ry="2.387"
   id="ellipse80" />
			
				<ellipse
   transform="matrix(0.0594 -0.9982 0.9982 0.0594 172.983 548.4706)"
   style="fill:#36344C;"
   cx="377.524"
   cy="182.446"
   rx="2.947"
   ry="2.387"
   id="ellipse81" />
			<path
   style="fill:#36344C;"
   d="M362.452,174.077c-0.15-0.404-0.421-0.79-0.822-0.979c-0.142-0.052-0.285-0.104-0.427-0.156     c-0.299-0.065-0.594-0.051-0.886,0.042l-3.826,0.769c-0.389,0.078-0.802,0.488-0.979,0.823c-0.196,0.372-0.263,0.911-0.114,1.313     c0.15,0.404,0.421,0.79,0.823,0.979c0.142,0.052,0.285,0.104,0.427,0.156c0.299,0.065,0.594,0.051,0.886-0.042l3.826-0.769     c0.389-0.078,0.802-0.488,0.979-0.822C362.535,175.017,362.602,174.478,362.452,174.077z"
   id="path81" />
			<path
   style="fill:#36344C;"
   d="M374.957,174.82c0.197-0.383,0.512-0.734,0.933-0.875c0.148-0.035,0.295-0.069,0.443-0.104     c0.305-0.029,0.596,0.02,0.874,0.147l3.708,1.217c0.377,0.124,0.739,0.579,0.874,0.933c0.151,0.393,0.153,0.936-0.043,1.317     c-0.197,0.383-0.512,0.734-0.933,0.875c-0.148,0.035-0.295,0.07-0.443,0.104c-0.305,0.029-0.596-0.02-0.874-0.147l-3.708-1.217     c-0.377-0.124-0.739-0.579-0.875-0.933C374.763,175.745,374.76,175.202,374.957,174.82z"
   id="path82" />
			<path
   style="fill:#D36D29;"
   d="M380.314,210.984c0,0-4.36,12.466-28.047,8.623l1.288-6.764l0.896-4.69     c3.389,3.605,8.098,5.982,13.396,6.295C372.436,214.726,376.774,213.406,380.314,210.984z"
   id="path83" />
			<path
   style="fill:#36344C;"
   d="M377.359,195.693c-1.697,2.386-4.465,3.842-7.391,3.898c-0.573,0.011-0.471,0.897,0.1,0.886     c3.134-0.06,6.165-1.666,7.982-4.219C378.381,195.792,377.692,195.225,377.359,195.693z"
   id="path84" />
		</g>
		<g
   id="g97">
			<path
   style="fill:#6BB2AB;"
   d="M352.827,216.678l-0.954,4.993l-8.764,1.73l-30.322,200.513     c-36.242-2.603-51.612-24.295-51.612-24.295l14.372-117.472c0,0-55.928-41.886-61.634-60.394     c-5.697-18.509,9.094-70.719,9.094-70.719l4.458,1.106l20.711,5.126l2.835,0.704v42.795l75.836,19.276     C340.238,214.119,352.827,216.678,352.827,216.678z"
   id="path85" />
			<path
   style="fill:#6BB2AB;"
   d="M380.67,216.321c0,0,10.909-0.478,19.068,9.312c0,0,22.534,4.957,26.747,19.828     s27.015,164.075,27.015,164.075s-2.231,15.49-20.571,17.349l-10.41-15.614l0.496,7.188c0,0-13.632,13.756-29.99,11.649     l-11.902-207.358L380.67,216.321z"
   id="path86" />
			<path
   style="fill:#389688;"
   d="M327.372,264.159c-0.816-8.796-1.188-17.633-1.115-26.466c0.042-5.029,0.233-10.055,0.565-15.073     c0.037-0.568-0.843-0.713-0.881-0.139c-0.585,8.854-0.729,17.737-0.422,26.605c0.309,8.901,1.07,17.785,2.28,26.609     c0.679,4.95,1.501,9.879,2.46,14.783c0.109,0.559,0.997,0.465,0.886-0.1C329.451,281.708,328.188,272.955,327.372,264.159z"
   id="path87" />
			<path
   style="fill:#389688;"
   d="M400.384,227.498c-0.783,8.035-1.975,16.028-3.577,23.94c-1.609,7.941-3.626,15.8-6.049,23.532     c-1.365,4.354-2.858,8.667-4.473,12.934c-0.202,0.535,0.609,0.906,0.812,0.369c2.871-7.587,5.353-15.321,7.43-23.163     c2.076-7.837,3.747-15.781,5.003-23.791c0.712-4.542,1.289-9.105,1.735-13.681C401.32,227.069,400.44,226.926,400.384,227.498z"
   id="path88" />
			<path
   style="fill:#389688;"
   d="M273.374,250.758c-0.298-2.69-0.572-5.382-0.822-8.076c-0.053-0.571-0.94-0.473-0.886,0.1     c0.888,9.54,2.074,19.052,3.562,28.516c0.42,2.673,0.866,5.343,1.333,8.008c0.099,0.562,0.986,0.468,0.886-0.1     C275.791,269.769,274.43,260.281,273.374,250.758z"
   id="path89" />
			<path
   style="fill:#389688;"
   d="M273.442,272.881c-2.526-7.347-5.051-14.694-7.577-22.041c-0.187-0.543-1.017-0.219-0.831,0.324     c2.525,7.347,5.051,14.694,7.576,22.041C272.797,273.747,273.628,273.423,273.442,272.881z"
   id="path90" />
			<path
   style="fill:#389688;"
   d="M419.451,361.858c-0.956-14.884-2.07-29.758-3.341-44.618c-0.72-8.416-1.491-16.827-2.311-25.234     c-0.056-0.571-0.942-0.473-0.886,0.1c1.456,14.92,2.755,29.855,3.893,44.802c1.133,14.872,2.109,29.755,2.927,44.647     c0.463,8.434,0.876,16.87,1.238,25.309c0.025,0.573,0.911,0.472,0.886-0.1C421.213,391.788,420.412,376.817,419.451,361.858z"
   id="path91" />
			<path
   style="fill:#389688;"
   d="M310.905,363.42c-2.53,5.484-5.712,10.652-9.464,15.386c-3.731,4.709-8.008,8.982-12.731,12.697     c-2.679,2.107-5.498,4.031-8.435,5.761c-0.495,0.292,0.033,1.011,0.524,0.721c5.245-3.09,10.1-6.808,14.474-11.041     c4.386-4.245,8.271-9.009,11.541-14.164c1.831-2.886,3.47-5.888,4.902-8.992C311.958,363.267,311.145,362.899,310.905,363.42z"
   id="path92" />
			<path
   style="fill:#389688;"
   d="M415.044,407.88c-7.114-8.387-12.469-18.213-15.675-28.733c-0.907-2.977-1.635-6.005-2.188-9.068     c-0.101-0.561-0.989-0.467-0.886,0.1c1.975,10.933,6.201,21.425,12.349,30.68c1.743,2.624,3.642,5.142,5.68,7.545     C414.692,408.839,415.416,408.318,415.044,407.88z"
   id="path93" />
			<path
   style="fill:#F4E9DC;"
   d="M321.926,255.672c-6.893,11.637-11.735,24.42-14.334,37.692c-0.331,1.69,2.311,2.106,2.642,0.418     c2.555-13.046,7.355-25.568,14.129-37.004C325.239,255.296,322.794,254.206,321.926,255.672z"
   id="path94" />
			<path
   style="fill:#F4E9DC;"
   d="M399.591,266.256c-0.48-1.652-2.97-0.673-2.492,0.972c3.553,12.222,4.646,25.102,3.235,37.749     c-0.19,1.705,2.45,2.133,2.642,0.418C404.442,292.255,403.281,278.951,399.591,266.256z"
   id="path95" />
			<path
   style="fill:#F4E9DC;"
   d="M327.552,290.241c-1.872,17.067-3.884,34.119-6.035,51.154c-2.141,16.949-4.42,33.88-6.837,50.792     c-1.355,9.481-2.754,18.955-4.195,28.423c-0.086,0.567,0.794,0.708,0.881,0.139c2.584-16.974,5.03-33.969,7.336-50.984     c2.294-16.929,4.45-33.876,6.468-50.84c1.131-9.51,2.218-19.025,3.263-28.545C328.495,289.812,327.615,289.669,327.552,290.241z"
   id="path96" />
			<path
   style="fill:#F4E9DC;"
   d="M392.185,372.986c-1.156-17.82-1.899-35.666-2.227-53.52c-0.185-10.06-0.237-20.122-0.16-30.183     c0.004-0.572-0.882-0.469-0.886,0.1c-0.137,17.857,0.137,35.716,0.827,53.56c0.69,17.844,1.794,35.671,3.311,53.464     c0.855,10.025,1.842,20.039,2.958,30.039c0.064,0.569,0.95,0.472,0.886-0.1C394.913,408.598,393.341,390.805,392.185,372.986z"
   id="path97" />
		</g>
	</g>
</g>
</svg>
